<svg xmlns="http://www.w3.org/2000/svg" version="1.1" xmlns:xlink="http://www.w3.org/1999/xlink" xmlns:svgjs="http://svgjs.dev/svgjs" width="100%" height="100%" viewBox="0 0 1000 600"><rect width="1000" height="600" x="0" y="0" fill="#f96167"/><g><rect width="333.3333333333333" height="333.3333333333333" rx="13.333333333333334" ry="13.333333333333334" y="324.5026373718016" fill="#fce77d" transform="matrix(0.41352329360036894,0,0,0.4135232936003691,0,96.8900438012294)" x="302.28057861328125"/><path d="M513.5021679829326 416.1693192835431L541.4377737744329 416.1693192835431L541.4377737744329 566.169317838582L524.1713597993474 566.169317838582L524.1713597993474 471.8511369289742L526.2231274563503 432.29936963321165L526.0021678625192 432.29936963321165L476.6650471256661 566.169317838582L461.22944121375235 566.169317838582L411.8923204768993 432.29936963321165L411.6713608830682 432.29936963321165L413.72312854007106 471.8511369289742L413.72312854007106 566.169317838582L396.45671456498553 566.169317838582L396.45671456498553 416.1693192835431L424.3923203564858 416.1693192835431L457.34686549357775 507.29936891073106L468.71050174774734 544.7993685494907L469.1839865916711 544.7993685494907L480.7685824396718 507.52032850456214L513.5021679829326 416.1693192835431Z " fill="#f96167" transform="matrix(0.41352329360036894,0,0,0.4135232936003691,0,96.8900438012294)"/><path d="M735.1634621586628 564.1422836588818L718.9472467319505 564.1422836588818L718.9472467319505 462.79093724192967L733.1364352303237 462.79093724192967L734.1499486944933 478.61300854368716Q739.6116601402957 469.2661621519016 748.423596648214 465.0150362327461Q757.2355331561323 460.76391031359066 766.582379547918 460.76391031359066L766.582379547918 460.76391031359066Q777.3087303770453 460.76391031359066 786.8526488313083 465.6344055719608Q796.3684141337887 470.50490083033105 801.4359814546365 480.6400354720262L801.4359814546365 480.6400354720262Q804.6735939096224 473.742513285317 810.5576026321621 469.37877475903156Q816.4416113547018 465.0150362327461 823.4235929967584 462.90354984905963Q830.4337277905977 460.76391031359066 836.7118806380922 460.76391031359066L836.7118806380922 460.76391031359066Q846.4247180030501 460.76391031359066 855.2648076627509 464.81796417026874Q864.0767441706693 468.8720180269468 869.7355276789491 477.37426986525776Q875.4224643390113 485.90467485535123 875.4224643390113 499.2774219520324L875.4224643390113 499.2774219520324L875.4224643390113 564.1422836588818L859.206248912299 564.1422836588818L859.206248912299 500.91030475541663Q859.206248912299 487.11526038199816 852.3087267255897 481.03417959698106Q845.4112045388805 474.9530988119639 835.2760698971854 474.9530988119639L835.2760698971854 474.9530988119639Q827.3931873980891 474.9530988119639 820.4956652113799 478.8100806061646Q813.5981430246707 482.6670624003653 809.4314765608626 490.1558007745067Q805.292963248837 497.64453914864816 805.292963248837 508.5961151920355L805.292963248837 508.5961151920355L805.292963248837 564.1422836588818L789.0767478221248 564.1422836588818L789.0767478221248 500.91030475541663Q789.0767478221248 487.11526038199816 782.1792256354156 481.03417959698106Q775.2817034487064 474.9530988119639 765.1465688070111 474.9530988119639L765.1465688070111 474.9530988119639Q758.4742718345617 474.9530988119639 751.4641370407226 478.50039593655725Q744.4821553986659 482.0476930611506 739.8087322027732 489.76165664955187Q735.1634621586628 497.4474670861708 735.1634621586628 510.03192593294233L735.1634621586628 510.03192593294233L735.1634621586628 564.1422836588818ZM980.6307925501641 462.79093724192967L1001.0981338960318 462.79093724192967L957.3199828742651 506.5690882636964L953.4630010800644 510.4260700578971L920.2141288249476 543.6749423130138L920.2141288249476 523.4046730296234L980.6307925501641 462.79093724192967ZM912.1060211115915 416.16931789013177L928.3222365383037 416.16931789013177L928.3222365383037 564.1422836588818L912.1060211115915 564.1422836588818L912.1060211115915 416.16931789013177ZM945.1578213042308 507.38552966538856L958.7276404633894 498.26390848786286L1003.5193049493256 564.1422836588818L983.86840500515 564.1422836588818L945.1578213042308 507.38552966538856ZM1069.3976801203444 566.1693105872207L1069.3976801203444 566.1693105872207Q1055.0114195594938 566.1693105872207 1043.7783119982814 559.8911577397262Q1032.517051285287 553.6130048922316 1026.2388984377924 541.7323748400222Q1019.9607455902978 529.8798979395954 1019.9607455902978 513.4666104504056L1019.9607455902978 513.4666104504056Q1019.9607455902978 497.05332296121594 1026.2388984377924 485.20084606078905Q1032.517051285287 473.32021600857973 1043.4686273286743 467.0420631610852Q1054.4202033720617 460.76391031359066 1068.3841666561748 460.76391031359066L1068.3841666561748 460.76391031359066Q1082.5733551545482 460.76391031359066 1092.6240303408958 466.84499109860775Q1102.6465523754614 472.9260718836249 1107.9111917587861 483.3708911949274Q1113.2039842938939 493.81571050623 1113.2039842938939 506.76616032617386L1113.2039842938939 506.76616032617386Q1113.2039842938939 510.2289979954197 1112.9787590796336 513.0724663254509Q1112.7816870171564 515.8877815036994 1112.3875428922015 518.1400336462984L1112.3875428922015 518.1400336462984L1030.4900243569477 518.1400336462984L1030.4900243569477 503.7256199336653L1105.2929486430148 503.7256199336653L1096.9877688671813 505.3585027370495Q1096.9877688671813 490.77517011372146 1088.9641206091728 482.8641344628427Q1080.9686255029465 474.9530988119639 1067.99002253122 474.9530988119639L1067.99002253122 474.9530988119639Q1058.0519599520023 474.9530988119639 1050.872906247468 479.51390940072673Q1043.6656993911515 484.0747199894896 1039.7242581416035 492.6895844349305Q1035.754663740273 501.30444888037147 1035.754663740273 513.4666104504056L1035.754663740273 513.4666104504056Q1035.754663740273 525.4316999579626 1039.8087175969508 534.131023858751Q1043.8627714536292 542.8585009113217 1051.267050372423 547.4193115000846Q1058.671329291217 551.9801220888473 1069.0035359953895 551.9801220888473L1069.0035359953895 551.9801220888473Q1080.1521841012543 551.9801220888473 1087.1341657433109 547.728996169692Q1094.1443005371502 543.4778702505364 1098.3954264563058 536.1580507870899L1098.3954264563058 536.1580507870899L1111.1769573655547 543.6749423130138Q1107.319975571354 550.5724644997231 1101.3233542416842 555.6400318205706Q1095.354886063797 560.7075991414183 1087.359390957571 563.4384548643195Q1079.3357426995622 566.1693105872207 1069.3976801203444 566.1693105872207ZM1143.3841630047195 502.7121064694958L1210.2760516399076 502.7121064694958L1210.2760516399076 519.5476912354227L1143.3841630047195 519.5476912354227L1143.3841630047195 502.7121064694958ZM1281.4472193460338 547.728996169692L1314.4708663868907 462.79093724192967L1331.5035232152954 462.79093724192967L1289.3301018451302 564.1422836588818L1273.113886418418 564.1422836588818L1230.9686182000355 462.79093724192967L1249.408932617564 462.79093724192967L1281.4472193460338 547.728996169692ZM1395.1577993954975 566.1693105872207L1395.1577993954975 566.1693105872207Q1380.771538834647 566.1693105872207 1369.5102781216524 559.8911577397262Q1358.2490174086574 553.6130048922316 1351.9708645611631 541.7323748400222Q1345.6927117136684 529.8798979395954 1345.6927117136684 513.4666104504056L1345.6927117136684 513.4666104504056Q1345.6927117136684 497.05332296121594 1351.9708645611631 485.20084606078905Q1358.2490174086574 473.32021600857973 1369.2005934520448 467.0420631610852Q1380.1521694954322 460.76391031359066 1394.1442859313279 460.76391031359066L1394.1442859313279 460.76391031359066Q1408.3334744297013 460.76391031359066 1418.3559964642664 466.84499109860775Q1428.4066716506145 472.9260718836249 1433.6713110339392 483.3708911949274Q1438.9359504172644 493.81571050623 1438.9359504172644 506.76616032617386L1438.9359504172644 506.76616032617386Q1438.9359504172644 510.2289979954197 1438.7388783547867 513.0724663254509Q1438.5418062923095 515.8877815036994 1438.119509015572 518.1400336462984L1438.119509015572 518.1400336462984L1356.2219904803187 518.1400336462984L1356.2219904803187 503.7256199336653L1431.0249147663853 503.7256199336653L1422.7197349905523 505.3585027370495Q1422.7197349905523 490.77517011372146 1414.724239884326 482.8641344628427Q1406.700591626317 474.9530988119639 1393.7219886545909 474.9530988119639L1393.7219886545909 474.9530988119639Q1383.8120792271557 474.9530988119639 1376.604872370839 479.51390940072673Q1369.3976655145225 484.0747199894896 1365.456224264974 492.6895844349305Q1361.514783015426 501.30444888037147 1361.514783015426 513.4666104504056L1361.514783015426 513.4666104504056Q1361.514783015426 525.4316999579626 1365.568836872104 534.131023858751Q1369.6228907287823 542.8585009113217 1376.9990164957935 547.4193115000846Q1384.4032954145878 551.9801220888473 1394.7355021187605 551.9801220888473L1394.7355021187605 551.9801220888473Q1405.884150224625 551.9801220888473 1412.8942850184644 547.728996169692Q1419.8762666605207 543.4778702505364 1424.1273925796763 536.1580507870899L1424.1273925796763 536.1580507870899L1436.9089234889252 543.6749423130138Q1433.0519416947245 550.5724644997231 1427.0834735168373 555.6400318205706Q1421.086852187168 560.7075991414183 1413.0913570809416 563.4384548643195Q1405.0958619747153 566.1693105872207 1395.1577993954975 566.1693105872207ZM1485.9517138940168 564.1422836588818L1469.7354984673048 564.1422836588818L1469.7354984673048 462.79093724192967L1482.9111735015085 462.79093724192967L1485.1634256441075 479.4012967935968Q1489.414551563263 470.08260355359374 1497.6071187319662 465.43733350948344Q1505.8278390524529 460.76391031359066 1517.5958564975322 460.76391031359066L1517.5958564975322 460.76391031359066Q1520.2140996133035 460.76391031359066 1523.3672526129417 461.1580544385455Q1526.4922524607978 461.58035171528275 1528.7445046033968 462.79093724192967L1528.7445046033968 462.79093724192967L1525.9010362733657 477.5994950795177Q1523.6769372825493 476.78305367782554 1521.0305410149954 476.3607564010883Q1518.384144747442 475.96661227613345 1513.5418026408543 475.96661227613345L1513.5418026408543 475.96661227613345Q1507.235496641577 475.96661227613345 1500.8728843387348 479.6265220078567Q1494.4821188841106 483.2582785877975 1490.230992964955 490.6625575065915Q1485.9517138940168 498.0668364253855 1485.9517138940168 509.41255659372763L1485.9517138940168 509.41255659372763L1485.9517138940168 564.1422836588818ZM1594.8199518368929 566.1693105872207L1594.8199518368929 566.1693105872207Q1580.4336912760423 566.1693105872207 1569.1724305630478 559.8911577397262Q1557.9111698500528 553.6130048922316 1551.6330170025585 541.7323748400222Q1545.3548641550642 529.8798979395954 1545.3548641550642 513.4666104504056L1545.3548641550642 513.4666104504056Q1545.3548641550642 497.05332296121594 1551.6330170025585 485.20084606078905Q1557.9111698500528 473.32021600857973 1568.8627458934402 467.0420631610852Q1579.8143219368276 460.76391031359066 1593.8064383727233 460.76391031359066L1593.8064383727233 460.76391031359066Q1607.9956268710966 460.76391031359066 1618.0181489056622 466.84499109860775Q1628.06882409201 472.9260718836249 1633.3334634753346 483.3708911949274Q1638.5981028586598 493.81571050623 1638.5981028586598 506.76616032617386L1638.5981028586598 506.76616032617386Q1638.5981028586598 510.2289979954197 1638.4010307961826 513.0724663254509Q1638.203958733705 515.8877815036994 1637.7816614569674 518.1400336462984L1637.7816614569674 518.1400336462984L1555.884142921714 518.1400336462984L1555.884142921714 503.7256199336653L1630.6870672077812 503.7256199336653L1622.3818874319477 505.3585027370495Q1622.3818874319477 490.77517011372146 1614.3863923257213 482.8641344628427Q1606.3627440677128 474.9530988119639 1593.3841410959863 474.9530988119639L1593.3841410959863 474.9530988119639Q1583.4742316685506 474.9530988119639 1576.2670248122345 479.51390940072673Q1569.0598179559179 484.0747199894896 1565.1183767063694 492.6895844349305Q1561.1769354568214 501.30444888037147 1561.1769354568214 513.4666104504056L1561.1769354568214 513.4666104504056Q1561.1769354568214 525.4316999579626 1565.2309893134993 534.131023858751Q1569.2850431701777 542.8585009113217 1576.661168937189 547.4193115000846Q1584.0654478559832 551.9801220888473 1594.3976545601558 551.9801220888473L1594.3976545601558 551.9801220888473Q1605.5463026660204 551.9801220888473 1612.5564374598598 547.728996169692Q1619.5384191019161 543.4778702505364 1623.7895450210717 536.1580507870899L1623.7895450210717 536.1580507870899L1636.5710759303206 543.6749423130138Q1632.71409413612 550.5724644997231 1626.7456259582327 555.6400318205706Q1620.7490046285634 560.7075991414183 1612.753509522337 563.4384548643195Q1604.7580144161107 566.1693105872207 1594.8199518368929 566.1693105872207ZM1677.5057586220564 443.3371093602314L1677.5057586220564 443.3371093602314Q1672.044047176254 443.3371093602314 1668.6938221141381 439.98688429811546Q1665.3435970520222 436.63665923599956 1665.3435970520222 431.17494779019717L1665.3435970520222 431.17494779019717Q1665.3435970520222 425.6850831926123 1668.6938221141381 422.3630112822789Q1672.044047176254 419.0127862201629 1677.5057586220564 419.0127862201629L1677.5057586220564 419.0127862201629Q1682.9956232196414 419.0127862201629 1686.3458482817573 422.3630112822789Q1689.6679201920906 425.6850831926123 1689.6679201920906 431.17494779019717L1689.6679201920906 431.17494779019717Q1689.6679201920906 436.63665923599956 1686.3458482817573 439.98688429811546Q1682.9956232196414 443.3371093602314 1677.5057586220564 443.3371093602314ZM1669.3976509087001 462.79093724192967L1685.6138663354122 462.79093724192967L1685.6138663354122 564.1422836588818L1669.3976509087001 564.1422836588818L1669.3976509087001 462.79093724192967ZM1739.5553051506567 564.1422836588818L1723.3390897239447 564.1422836588818L1723.3390897239447 462.79093724192967L1737.528278222318 462.79093724192967L1738.935935811442 485.4823775786139L1736.2895395438886 483.2582785877975Q1739.5553051506567 475.15017087444136 1745.0170165964596 470.1952161607237Q1750.478728042262 465.2121082952235 1757.6859348985786 462.9880093044071Q1764.8931417548952 460.76391031359066 1772.578952191514 460.76391031359066L1772.578952191514 460.76391031359066Q1783.5305282349009 460.76391031359066 1792.455077349949 464.93057677739864Q1801.3796264649977 469.0690900894242 1806.7287253036702 477.5994950795177Q1812.1059772941253 486.1017469178286 1812.1059772941253 499.2774219520324L1812.1059772941253 499.2774219520324L1812.1059772941253 564.1422836588818L1795.8897618674127 564.1422836588818L1795.8897618674127 504.9643586120947Q1795.8897618674127 488.1287738461677 1788.7107081628787 481.5409363290658Q1781.5035013065622 474.9530988119639 1770.9742225399123 474.9530988119639L1770.9742225399123 474.9530988119639Q1763.6544030764653 474.9530988119639 1756.3627367648014 478.3877833294273Q1749.0710704531375 481.85062099867315 1744.3131878018971 489.536431435292Q1739.5553051506567 497.25039502369333 1739.5553051506567 510.2289979954197L1739.5553051506567 510.2289979954197L1739.5553051506567 564.1422836588818ZM1856.8976417800613 539.8179605188132L1856.8976417800613 539.8179605188132Q1862.7816505026012 539.8179605188132 1866.4415602343242 543.4778702505364Q1870.0733168142651 547.1096268304773 1870.0733168142651 552.9936355530169L1870.0733168142651 552.9936355530169Q1870.0733168142651 558.8776442755566 1866.4415602343242 562.5094008554975Q1862.7816505026012 566.1693105872207 1856.8976417800613 566.1693105872207L1856.8976417800613 566.1693105872207Q1851.041786209304 566.1693105872207 1847.381876477581 562.5094008554975Q1843.7219667458576 558.8776442755566 1843.7219667458576 552.9936355530169L1843.7219667458576 552.9936355530169Q1843.7219667458576 547.1096268304773 1847.381876477581 543.4778702505364Q1851.041786209304 539.8179605188132 1856.8976417800613 539.8179605188132ZM1942.257997984561 566.1693105872207L1942.257997984561 566.1693105872207Q1929.6735391377892 566.1693105872207 1919.1442603711394 559.8911577397262Q1908.5868284527069 553.6130048922316 1902.308675605212 541.7323748400222Q1896.0305227577178 529.8798979395954 1896.0305227577178 513.4666104504056L1896.0305227577178 513.4666104504056Q1896.0305227577178 496.63102568447863 1902.7309728819496 484.8911613911817Q1909.4032698543992 473.1231439461023 1920.3548458977862 466.9576037057377Q1931.3064219411735 460.76391031359066 1943.8627276361626 460.76391031359066L1943.8627276361626 460.76391031359066Q1956.4471864829343 460.76391031359066 1965.653267115807 467.2391352235626Q1974.8875009004628 473.742513285317 1977.9280412929716 484.46886411444444L1977.9280412929716 484.46886411444444L1975.9010143646328 485.90467485535123L1975.9010143646328 416.16931789013177L1992.117229791345 416.16931789013177L1992.117229791345 564.1422836588818L1977.9280412929716 564.1422836588818L1976.4922305520645 539.6208884563357L1978.744482694664 538.4103029296889Q1977.3086719537569 547.3066988929546 1971.9314199633018 553.5003922851017Q1966.5823211246293 559.6940856772487 1958.755744929098 562.9316981322347Q1950.9573218853493 566.1693105872207 1942.257997984561 566.1693105872207ZM1943.8627276361626 551.9801220888473L1943.8627276361626 551.9801220888473Q1953.6037181529032 551.9801220888473 1960.7827718574372 547.1096268304773Q1967.9899787137538 542.239131572107 1971.9314199633018 533.2301230017113Q1975.9010143646328 524.2211144313155 1975.9010143646328 512.0589528612813L1975.9010143646328 512.0589528612813Q1975.9010143646328 500.4880074786793 1971.9314199633018 492.18282770284577Q1967.9899787137538 483.8776479270122 1961.007997071697 479.4012967935968Q1953.9978622778576 474.9530988119639 1944.6791690378545 474.9530988119639L1944.6791690378545 474.9530988119639Q1929.2793950128348 474.9530988119639 1920.748990022741 485.4823775786139Q1912.2467381844303 496.0398094970464 1912.2467381844303 513.4666104504056L1912.2467381844303 513.4666104504056Q1912.2467381844303 530.893411403765 1920.5519179602634 541.4508433221974Q1928.8570977360973 551.9801220888473 1943.8627276361626 551.9801220888473ZM2072.1847934607367 566.1693105872207L2072.1847934607367 566.1693105872207Q2057.798532899886 566.1693105872207 2046.5372721868916 559.8911577397262Q2035.2760114738967 553.6130048922316 2028.9978586264024 541.7323748400222Q2022.719705778908 529.8798979395954 2022.719705778908 513.4666104504056L2022.719705778908 513.4666104504056Q2022.719705778908 497.05332296121594 2028.9978586264024 485.20084606078905Q2035.2760114738967 473.32021600857973 2046.227587517284 467.0420631610852Q2057.1791635606714 460.76391031359066 2071.171279996567 460.76391031359066L2071.171279996567 460.76391031359066Q2085.3604684949405 460.76391031359066 2095.3829905295056 466.84499109860775Q2105.4336657158537 472.9260718836249 2110.6983050991785 483.3708911949274Q2115.9629444825036 493.81571050623 2115.9629444825036 506.76616032617386L2115.9629444825036 506.76616032617386Q2115.9629444825036 510.2289979954197 2115.7658724200264 513.0724663254509Q2115.5688003575488 515.8877815036994 2115.1465030808113 518.1400336462984L2115.1465030808113 518.1400336462984L2033.248984545558 518.1400336462984L2033.248984545558 503.7256199336653L2108.051908831625 503.7256199336653L2099.7467290557915 505.3585027370495Q2099.7467290557915 490.77517011372146 2091.751233949565 482.8641344628427Q2083.727585691556 474.9530988119639 2070.74898271983 474.9530988119639L2070.74898271983 474.9530988119639Q2060.839073292395 474.9530988119639 2053.6318664360783 479.51390940072673Q2046.4246595797617 484.0747199894896 2042.4832183302133 492.6895844349305Q2038.5417770806653 501.30444888037147 2038.5417770806653 513.4666104504056L2038.5417770806653 513.4666104504056Q2038.5417770806653 525.4316999579626 2042.5958309373432 534.131023858751Q2046.6498847940215 542.8585009113217 2054.026010561033 547.4193115000846Q2061.430289479827 551.9801220888473 2071.7624961839997 551.9801220888473L2071.7624961839997 551.9801220888473Q2082.9111442898643 551.9801220888473 2089.9212790837037 547.728996169692Q2096.90326072576 543.4778702505364 2101.1543866449156 536.1580507870899L2101.1543866449156 536.1580507870899L2113.9359175541645 543.6749423130138Q2110.0789357599638 550.5724644997231 2104.1104675820766 555.6400318205706Q2098.113846252407 560.7075991414183 2090.118351146181 563.4384548643195Q2082.1228560399545 566.1693105872207 2072.1847934607367 566.1693105872207Z " fill="#fce77d" transform="matrix(0.41352329360036894,0,0,0.4135232936003691,0,96.8900438012294)"/></g></svg>